<?xml version="1.0" encoding="iso-8859-1"?>
<!-- Generator: Adobe Illustrator 18.0.0, SVG Export Plug-In . SVG Version: 6.00 Build 0)  -->
<!DOCTYPE svg PUBLIC "-//W3C//DTD SVG 1.1//EN" "http://www.w3.org/Graphics/SVG/1.1/DTD/svg11.dtd">
<svg version="1.1" id="Capa_1" xmlns="http://www.w3.org/2000/svg" xmlns:xlink="http://www.w3.org/1999/xlink" x="0px" y="0px"
	 viewBox="0 0 434.734 434.734" style="enable-background:new 0 0 434.734 434.734;" xml:space="preserve">
<g>
	<path style="fill:#26A3BF;" d="M351.576,184.523H125.85c-20.214,0-36.659-16.445-36.659-36.659V36.659
		C89.19,16.445,105.636,0,125.85,0h225.727c20.214,0,36.659,16.445,36.659,36.659v111.205
		C388.235,168.078,371.79,184.523,351.576,184.523z M125.85,14c-12.494,0-22.659,10.165-22.659,22.659v111.205
		c0,12.494,10.165,22.659,22.659,22.659h225.727c12.494,0,22.659-10.165,22.659-22.659V36.659C374.235,24.165,364.07,14,351.576,14
		H125.85z"/>
	<g>
		<path style="fill:#F98680;" d="M137.568,232.484v40.07l-8.22,3.85l-37.32,17.5v-61.42c0-12.57,10.2-22.77,22.77-22.77
			c5.54,0,10.61,1.98,14.55,5.26c0.54,0.45,1.06,0.92,1.55,1.41C135.019,220.504,137.568,226.204,137.568,232.484z"/>
		<path style="fill:#F98680;" d="M183.098,215.034v66.25l-45.53-7.41v-58.84c0-12.57,10.19-22.76,22.76-22.76
			c5.53,0,10.61,1.98,14.55,5.26c0.54,0.45,1.06,0.92,1.55,1.41C180.548,203.064,183.098,208.744,183.098,215.034z"/>
		<path style="fill:#F98680;" d="M349.738,323.364c0,5.57-2.02,11.15-6.08,15.54l-71.64,77.52c-10.79,11.67-25.95,18.31-41.84,18.31
			h-96.12c-48.36,0-87.56-39.21-87.56-87.57v-83.44c0-12.58,10.19-22.77,22.77-22.77c5.53,0,10.61,1.98,14.55,5.26
			c0.53,0.45,1.05,0.92,1.54,1.41c4.12,4.12,6.67,9.81,6.67,16.1l37.32-4.99l8.22-1.1l37.31-4.99l8.22-1.1v-128.81
			c0-12.57,10.19-22.76,22.76-22.76c6.29,0,11.98,2.55,16.1,6.67c4.12,4.12,6.67,9.8,6.67,16.09v195.83
			c0,26.07,31.51,39.12,49.94,20.69l32.08-32.08c9.05-9.04,23.74-8.93,32.64,0.26C347.588,311.864,349.738,317.614,349.738,323.364z
			"/>
	</g>
	<path style="fill:#E57370;" d="M92.028,263.724v30.18h-8.21v-47.69c0.53,0.45,1.05,0.92,1.54,1.41
		C89.478,251.744,92.028,257.434,92.028,263.724z"/>
	<path style="fill:#E57370;" d="M137.568,232.484v46.55h-8.22v-64.06c0.54,0.45,1.06,0.92,1.55,1.41
		C135.019,220.504,137.568,226.204,137.568,232.484z"/>
	<path style="fill:#E57370;" d="M183.098,215.034v64.57h-8.22v-82.07c0.54,0.45,1.06,0.92,1.55,1.41
		C180.548,203.064,183.098,208.744,183.098,215.034z"/>
</g>
<g>
</g>
<g>
</g>
<g>
</g>
<g>
</g>
<g>
</g>
<g>
</g>
<g>
</g>
<g>
</g>
<g>
</g>
<g>
</g>
<g>
</g>
<g>
</g>
<g>
</g>
<g>
</g>
<g>
</g>
</svg>
